<svg width="41" height="35" viewBox="0 0 41 35" fill="none" xmlns="http://www.w3.org/2000/svg">
<path d="M21.115 34.1797C21.036 34.2616 20.9414 34.3266 20.8368 34.3711C20.7323 34.4156 20.6198 34.4385 20.5063 34.4385C20.3927 34.4385 20.2803 34.4156 20.1758 34.3711C20.0712 34.3266 19.9766 34.2616 19.8976 34.1797L3.88164 17.6332C2.42415 16.1984 1.45964 14.3353 1.12783 12.3136C0.796016 10.2919 1.11414 8.21673 2.03611 6.38863V6.38863C2.74703 5.00353 3.77246 3.80555 5.02965 2.89139C6.28685 1.97723 7.74058 1.37249 9.27354 1.12597C10.8065 0.879457 12.3757 0.998075 13.8546 1.47225C15.3335 1.94643 16.6805 2.76288 17.7871 3.85571L20.5006 6.33935L23.2141 3.85571C24.3204 2.76264 25.6674 1.94598 27.1462 1.47166C28.625 0.997336 30.1943 0.878651 31.7272 1.12518C33.2602 1.37172 34.7139 1.97656 35.971 2.89088C37.2281 3.80519 38.2533 5.00336 38.9639 6.38863V6.38863C39.8856 8.21662 40.2038 10.2915 39.8724 12.3131C39.5411 14.3346 38.5773 16.1979 37.1207 17.6332L21.115 34.1797Z" stroke="#073937" stroke-linecap="round" stroke-linejoin="round"/>
</svg>
