<svg width="32" height="32" viewBox="0 0 32 32" fill="none" xmlns="http://www.w3.org/2000/svg">
<g clip-path="url(#clip0_1_258)">
<path d="M22.816 0H8.474C6.22761 0.00343829 4.07421 0.897336 2.48577 2.48577C0.897336 4.07421 0.00343829 6.22761 0 8.474L0 22.816C0.00343829 25.0624 0.897336 27.2158 2.48577 28.8042C4.07421 30.3927 6.22761 31.2866 8.474 31.29H22.816C25.0624 31.2866 27.2158 30.3927 28.8042 28.8042C30.3927 27.2158 31.2866 25.0624 31.29 22.816V8.474C31.2866 6.22761 30.3927 4.07421 28.8042 2.48577C27.2158 0.897336 25.0624 0.00343829 22.816 0V0ZM15.645 22.816C14.2267 22.816 12.8403 22.3954 11.661 21.6075C10.4817 20.8195 9.56262 19.6996 9.01986 18.3892C8.4771 17.0789 8.33509 15.637 8.61179 14.246C8.88848 12.855 9.57146 11.5772 10.5743 10.5743C11.5772 9.57146 12.855 8.88848 14.246 8.61179C15.637 8.33509 17.0789 8.4771 18.3892 9.01986C19.6996 9.56262 20.8195 10.4817 21.6075 11.661C22.3954 12.8403 22.816 14.2267 22.816 15.645C22.816 17.5469 22.0605 19.3708 20.7157 20.7157C19.3708 22.0605 17.5469 22.816 15.645 22.816ZM24.12 8.474C23.7331 8.474 23.355 8.35928 23.0333 8.14435C22.7116 7.92943 22.4609 7.62394 22.3129 7.26653C22.1648 6.90912 22.1261 6.51583 22.2016 6.1364C22.2771 5.75698 22.4633 5.40845 22.7369 5.1349C23.0105 4.86135 23.359 4.67506 23.7384 4.59958C24.1178 4.52411 24.5111 4.56285 24.8685 4.71089C25.2259 4.85894 25.5314 5.10964 25.7464 5.4313C25.9613 5.75297 26.076 6.13114 26.076 6.518C26.076 7.03676 25.8699 7.53428 25.5031 7.9011C25.1363 8.26792 24.6388 8.474 24.12 8.474Z" fill="white"/>
</g>
<defs>
<clipPath id="clip0_1_258">
<rect width="31.29" height="31.29" fill="white"/>
</clipPath>
</defs>
</svg>
