<svg width="30" height="30" viewBox="0 0 30 30" fill="none" xmlns="http://www.w3.org/2000/svg">
<path d="M0 8.14404H7.437V28.967H0V8.14404Z" fill="white"/>
<path d="M4.38667e-05 3.718C0.00576978 4.44635 0.226983 5.15671 0.635801 5.75954C1.04462 6.36236 1.62274 6.83067 2.2973 7.10544C2.97186 7.38022 3.71267 7.44914 4.42634 7.30355C5.14002 7.15795 5.79462 6.80434 6.30764 6.28728C6.82066 5.77023 7.16913 5.11288 7.30914 4.39809C7.44915 3.6833 7.37442 2.94305 7.09437 2.27066C6.81433 1.59828 6.34151 1.02384 5.7355 0.619751C5.12949 0.215667 4.41742 2.25066e-05 3.68904 0C3.20256 0.00144054 2.72114 0.0988039 2.27233 0.286518C1.82352 0.474232 1.41613 0.748611 1.07348 1.09395C0.730834 1.43929 0.459654 1.84882 0.27546 2.29908C0.0912659 2.74935 -0.00232495 3.23152 4.38667e-05 3.718Z" fill="white"/>
<path d="M24.5431 29.1312H29.0051C29.2024 29.1312 29.3916 29.0529 29.5312 28.9133C29.6707 28.7738 29.7491 28.5846 29.7491 28.3872V15.8932C29.7491 10.2862 26.5811 7.56424 22.1491 7.56424C21.2748 7.53228 20.4036 7.68386 19.5915 8.00921C18.7794 8.33457 18.0444 8.82648 17.4341 9.45324C17.3526 9.54726 17.2444 9.61412 17.1238 9.64485C17.0033 9.67559 16.8762 9.66874 16.7597 9.62521C16.6431 9.58169 16.5427 9.50357 16.4718 9.40134C16.4009 9.2991 16.363 9.17764 16.3631 9.05324C16.3631 8.85592 16.2847 8.66668 16.1452 8.52715C16.0056 8.38763 15.8164 8.30924 15.6191 8.30924H11.1571C10.9601 8.30924 10.7712 8.38735 10.6317 8.52644C10.4922 8.66554 10.4136 8.85427 10.4131 9.05124V28.3872C10.4131 28.5846 10.4915 28.7738 10.631 28.9133C10.7705 29.0529 10.9598 29.1312 11.1571 29.1312H15.6191C15.8164 29.1312 16.0056 29.0529 16.1452 28.9133C16.2847 28.7738 16.3631 28.5846 16.3631 28.3872V17.2312C16.3631 16.245 16.7549 15.2992 17.4522 14.6019C18.1496 13.9045 19.0954 13.5127 20.0816 13.5127C21.0678 13.5127 22.0136 13.9045 22.711 14.6019C23.4083 15.2992 23.8001 16.245 23.8001 17.2312V28.3872C23.8001 28.5844 23.8783 28.7735 24.0176 28.913C24.157 29.0525 24.3459 29.131 24.5431 29.1312Z" fill="white"/>
</svg>
