<svg width="50" height="38" viewBox="0 0 50 38" fill="none" xmlns="http://www.w3.org/2000/svg">
<g clip-path="url(#clip0_1_59)">
<path d="M24.781 27.6505C22.779 26.0112 21.1472 23.9568 19.9955 21.6256C18.8439 19.2944 18.1991 16.7406 18.1046 14.136C18.1678 11.7875 18.6892 9.47476 19.6387 7.33089C20.5882 5.18703 21.9471 3.25431 23.6373 1.6439C23.9431 1.34056 24.3542 1.17065 24.7823 1.17065C25.2105 1.17065 25.6216 1.34056 25.9274 1.6439C27.6167 3.25483 28.9749 5.18772 29.9239 7.33151C30.8729 9.4753 31.3941 11.7877 31.4575 14.136C31.363 16.7406 30.7182 19.2944 29.5665 21.6256C28.4149 23.9568 26.7831 26.0112 24.781 27.6505Z" stroke="#073937" stroke-linecap="round" stroke-linejoin="round"/>
<path d="M31.2819 11.7711C34.4702 9.57619 38.2419 8.41286 42.0977 8.435C42.5373 8.43553 42.9589 8.61204 43.2703 8.92601C43.5818 9.23997 43.7579 9.66589 43.7602 10.1108C43.8262 12.4531 43.4347 14.7855 42.6084 16.9744C41.782 19.1632 40.5369 21.1655 38.9444 22.8664C37.0579 24.6404 34.8177 25.9846 32.3747 26.8087C29.9317 27.6328 27.3426 27.9175 24.7817 27.6438" stroke="#073937" stroke-linecap="round" stroke-linejoin="round"/>
<path d="M18.2848 11.7949C15.0788 9.56449 11.2703 8.39087 7.38017 8.43452C6.93979 8.43451 6.51726 8.61063 6.20462 8.92452C5.89198 9.23841 5.71458 9.66463 5.71105 10.1103C5.64303 12.4531 6.03265 14.7864 6.85755 16.9765C7.68245 19.1666 8.92642 21.1703 10.5181 22.8727C12.4224 24.6496 14.6793 25.9949 17.1382 26.8187C19.5971 27.6426 22.2013 27.926 24.777 27.6501" stroke="#073937" stroke-linecap="round" stroke-linejoin="round"/>
<path d="M6.43737 16.1132C6.43737 16.1132 -5.67439 24.5967 6.43737 32.477C9.79413 34.632 13.5625 36.0459 17.4959 36.627C20.1371 37.0561 23.6382 36.9115 27.4024 36.9649" stroke="#073937"/>
<path d="M43.5617 16.1132C43.5617 16.1132 55.6734 24.5967 43.5617 32.477C40.1567 34.6447 34.592 37.2405 24.6094 36.9675C24.2756 36.9797 23.1408 36.9594 22.5973 36.9675" stroke="#073937"/>
</g>
<defs>
<clipPath id="clip0_1_59">
<rect width="50" height="38" fill="white"/>
</clipPath>
</defs>
</svg>
