<svg width="33" height="33" viewBox="0 0 33 33" fill="none" xmlns="http://www.w3.org/2000/svg">
<path d="M2.54875 24.25C2.54875 24.9652 2.76083 25.6644 3.15818 26.2592C3.55553 26.8539 4.12031 27.3174 4.78109 27.5912C5.44188 27.865 6.16901 27.9367 6.87054 27.7972C7.57207 27.6578 8.2165 27.3135 8.72235 26.8078C9.2282 26.3021 9.57275 25.6578 9.71244 24.9563C9.85213 24.2548 9.78069 23.5277 9.50714 22.8668C9.23359 22.2059 8.77023 21.641 8.17563 21.2434C7.58104 20.8459 6.88191 20.6335 6.16666 20.6333C5.20746 20.6333 4.28755 21.0143 3.60929 21.6926C2.93103 22.3709 2.54999 23.2908 2.54999 24.25H2.54875Z" stroke="#073937" stroke-linecap="round" stroke-linejoin="round"/>
<path d="M11.3333 32C10.8339 31.0636 10.0893 30.2806 9.17929 29.7346C8.26925 29.1886 7.22793 28.9001 6.16667 28.9001C5.1054 28.9001 4.06409 29.1886 3.15405 29.7346C2.24401 30.2806 1.49946 31.0636 1 32" stroke="#073937" stroke-linecap="round" stroke-linejoin="round"/>
<path d="M23.2154 24.25C23.2154 24.9652 23.4275 25.6644 23.8249 26.2592C24.2222 26.8539 24.787 27.3174 25.4478 27.5912C26.1086 27.865 26.8357 27.9367 27.5372 27.7972C28.2387 27.6578 28.8832 27.3135 29.389 26.8078C29.8949 26.3021 30.2394 25.6578 30.3791 24.9563C30.5188 24.2548 30.4474 23.5277 30.1738 22.8668C29.9003 22.2059 29.4369 21.641 28.8423 21.2434C28.2477 20.8459 27.5486 20.6335 26.8333 20.6333C26.3583 20.6331 25.8878 20.7266 25.4489 20.9082C25.01 21.0899 24.6111 21.3563 24.2752 21.6922C23.9392 22.028 23.6727 22.4268 23.4908 22.8656C23.309 23.3045 23.2154 23.7749 23.2154 24.25V24.25Z" stroke="#073937" stroke-linecap="round" stroke-linejoin="round"/>
<path d="M32 32C31.5005 31.0636 30.756 30.2806 29.8459 29.7346C28.9359 29.1886 27.8946 28.9001 26.8333 28.9001C25.7721 28.9001 24.7307 29.1886 23.8207 29.7346C22.9107 30.2806 22.1661 31.0636 21.6667 32" stroke="#073937" stroke-linecap="round" stroke-linejoin="round"/>
<path d="M12.8821 4.61667C12.8821 5.33192 13.0942 6.03112 13.4915 6.62585C13.8889 7.22058 14.4537 7.68414 15.1144 7.95791C15.7752 8.23169 16.5024 8.30338 17.2039 8.16393C17.9054 8.02448 18.5498 7.68015 19.0557 7.17447C19.5615 6.6688 19.9061 6.02449 20.0458 5.323C20.1855 4.62152 20.114 3.89437 19.8405 3.23349C19.5669 2.57261 19.1036 2.00767 18.509 1.61012C17.9144 1.21257 17.2153 1.00025 16.5 1C15.5408 1 14.6209 1.38104 13.9426 2.0593C13.2644 2.73755 12.8833 3.65747 12.8833 4.61667H12.8821Z" stroke="#073937" stroke-linecap="round" stroke-linejoin="round"/>
<path d="M20.9752 11.3333C20.423 10.6849 19.7366 10.1642 18.9635 9.80714C18.1904 9.45006 17.3489 9.26514 16.4973 9.26514C15.6457 9.26514 14.8043 9.45006 14.0311 9.80714C13.258 10.1642 12.5716 10.6849 12.0195 11.3333" stroke="#073937" stroke-linecap="round" stroke-linejoin="round"/>
<path d="M12.4357 27.1186C15.0744 28.1245 17.9925 28.1157 20.6251 27.0938" stroke="#073937" stroke-linecap="round" stroke-linejoin="round"/>
<path d="M8.71279 8.23328C7.58166 9.29263 6.68007 10.5729 6.06386 11.9949C5.44766 13.4169 5.12995 14.9502 5.13043 16.4999C5.13043 16.8484 5.1511 17.189 5.18293 17.5333" stroke="#073937" stroke-linecap="round" stroke-linejoin="round"/>
<path d="M27.8129 17.5333C27.8431 17.1915 27.8654 16.8443 27.8654 16.4999C27.8662 14.9502 27.5486 13.4168 26.9323 11.9948C26.3161 10.5728 25.4144 9.29248 24.2831 8.23328" stroke="#073937" stroke-linecap="round" stroke-linejoin="round"/>
</svg>
