<svg width="25" height="32" viewBox="0 0 25 32" fill="none" xmlns="http://www.w3.org/2000/svg">
<path d="M5.082 30.808C5.0978 30.9208 5.14626 31.0266 5.22142 31.1123C5.29658 31.1979 5.39516 31.2597 5.505 31.29H5.666C5.77059 31.2867 5.87289 31.2585 5.96439 31.2077C6.05588 31.157 6.13391 31.085 6.192 30.998C7.59968 29.2586 8.68355 27.2805 9.392 25.158C9.523 24.676 9.961 22.939 10.283 21.698C10.2985 21.6389 10.3286 21.5846 10.3706 21.5401C10.4125 21.4957 10.465 21.4625 10.5231 21.4435C10.5813 21.4246 10.6432 21.4206 10.7033 21.4319C10.7634 21.4431 10.8197 21.4693 10.867 21.508C11.9208 22.3358 13.2209 22.788 14.561 22.793C20.255 22.793 24.388 17.58 24.388 10.411C24.384 5.286 20.092 0 12.908 0C4.892 0.044 0 5.8 0 11.3C0 14.731 1.46 17.359 3.826 18.338C3.95932 18.4036 4.106 18.4375 4.2546 18.4371C4.4032 18.4367 4.54968 18.4019 4.68261 18.3355C4.81553 18.269 4.93131 18.1728 5.02089 18.0542C5.11047 17.9357 5.17142 17.798 5.199 17.652L5.549 16.192C5.63381 15.9661 5.64854 15.7199 5.59128 15.4855C5.53402 15.2511 5.40741 15.0394 5.228 14.878C4.48995 13.9748 4.11046 12.8313 4.162 11.666C4.15534 10.5884 4.36682 9.52061 4.78369 8.52689C5.20056 7.53318 5.81422 6.6341 6.5877 5.88378C7.36119 5.13346 8.27851 4.54743 9.28444 4.16096C10.2904 3.77449 11.3641 3.59558 12.441 3.635C16.719 3.635 19.377 6.073 19.377 10.001C19.377 15.111 17.143 18.966 14.177 18.966C13.8076 18.9862 13.4382 18.9251 13.095 18.7868C12.7519 18.6486 12.4432 18.4367 12.191 18.166C11.9717 17.8846 11.8206 17.5562 11.7496 17.2066C11.6786 16.857 11.6897 16.4956 11.782 16.151C11.972 15.363 12.22 14.545 12.468 13.742C12.9242 12.4859 13.2091 11.1741 13.315 9.842C13.3479 9.46512 13.3009 9.08552 13.177 8.72807C13.0531 8.37062 12.8551 8.04336 12.596 7.76771C12.3368 7.49206 12.0224 7.27424 11.6733 7.12851C11.3242 6.98277 10.9482 6.9124 10.57 6.922C8.47 6.922 6.832 9.01 6.832 11.755C6.83074 12.6472 6.98889 13.5324 7.299 14.369C7.34075 14.5069 7.34075 14.6541 7.299 14.792L5.14 24C4.72328 26.2458 4.70365 28.5474 5.082 30.8V30.808Z" fill="white"/>
</svg>
