<svg width="30" height="25" viewBox="0 0 30 25" fill="none" xmlns="http://www.w3.org/2000/svg">
<path d="M29.225 4.94508C29.3167 4.86998 29.3856 4.7708 29.424 4.65868C29.4624 4.54656 29.4688 4.42595 29.4424 4.31041C29.416 4.19487 29.3579 4.08898 29.2746 4.00466C29.1913 3.92033 29.0862 3.86091 28.971 3.83308L27.964 3.57808C27.8724 3.55524 27.787 3.51234 27.7141 3.45246C27.6411 3.39259 27.5823 3.31725 27.542 3.23188C27.5017 3.14652 27.4809 3.05326 27.4811 2.95887C27.4813 2.86448 27.5024 2.7713 27.543 2.68608L28.104 1.55208C28.157 1.44219 28.1774 1.31939 28.1626 1.19827C28.1479 1.07715 28.0986 0.962822 28.0208 0.868867C27.943 0.774912 27.8398 0.705288 27.7235 0.668275C27.6073 0.631262 27.4828 0.628416 27.365 0.660076L24.816 1.37408C24.7211 1.40211 24.6211 1.40766 24.5237 1.3903C24.4263 1.37295 24.3343 1.33315 24.255 1.27408C23.3081 0.562947 22.1817 0.129725 21.0023 0.0230047C19.8229 -0.0837155 18.6371 0.140288 17.5779 0.669889C16.5187 1.19949 15.628 2.01374 15.0057 3.02129C14.3835 4.02885 14.0542 5.18985 14.055 6.37408V6.83308C14.0556 6.91134 14.0274 6.98708 13.9757 7.0459C13.9241 7.10472 13.8527 7.14251 13.775 7.15208C10.194 7.57308 6.76499 5.75208 3.06899 1.49308C2.98868 1.40456 2.88551 1.33989 2.77084 1.3062C2.65617 1.2725 2.53442 1.27107 2.41899 1.30208C2.31569 1.34959 2.22699 1.4239 2.1621 1.51727C2.09722 1.61065 2.0585 1.71969 2.04999 1.83308C1.53933 3.93018 1.74563 6.13789 2.63599 8.10408C2.66221 8.15621 2.67363 8.21454 2.669 8.27271C2.66437 8.33088 2.64388 8.38667 2.60975 8.434C2.57561 8.48133 2.52915 8.51839 2.47542 8.54115C2.42168 8.56391 2.36273 8.57149 2.30499 8.56308L0.877989 8.28308C0.776687 8.26653 0.672888 8.27472 0.575429 8.30693C0.47797 8.33914 0.389739 8.39442 0.318247 8.46808C0.246755 8.54173 0.19412 8.63157 0.164824 8.72994C0.135528 8.82831 0.130439 8.93231 0.149989 9.03308C0.260044 10.0113 0.588705 10.9522 1.11164 11.7862C1.63458 12.6202 2.33839 13.3259 3.17099 13.8511C3.22487 13.8772 3.2703 13.918 3.30209 13.9688C3.33388 14.0195 3.35073 14.0782 3.35073 14.1381C3.35073 14.198 3.33388 14.2566 3.30209 14.3074C3.2703 14.3582 3.22487 14.3989 3.17099 14.4251L2.49499 14.6931C2.41302 14.726 2.33878 14.7756 2.277 14.8387C2.21522 14.9018 2.16724 14.9771 2.13612 15.0598C2.10499 15.1424 2.09139 15.2307 2.09619 15.3188C2.10099 15.407 2.12408 15.4933 2.16399 15.5721C2.53823 16.3904 3.10561 17.1056 3.81734 17.6562C4.52908 18.2069 5.36388 18.5764 6.24999 18.7331C6.31167 18.7554 6.36497 18.7961 6.40265 18.8498C6.44033 18.9035 6.46054 18.9675 6.46054 19.0331C6.46054 19.0987 6.44033 19.1627 6.40265 19.2163C6.36497 19.27 6.31167 19.3108 6.24999 19.3331C4.51701 20.0499 2.65726 20.4097 0.781989 20.3911C0.698271 20.3743 0.612076 20.3742 0.528323 20.3908C0.44457 20.4074 0.364901 20.4403 0.293865 20.4876C0.222828 20.535 0.161814 20.5959 0.114308 20.6668C0.0668016 20.7378 0.0337326 20.8174 0.016989 20.9011C0.000245473 20.9848 0.00015529 21.071 0.0167237 21.1547C0.033292 21.2385 0.0661944 21.3182 0.113552 21.3892C0.16091 21.4602 0.221796 21.5213 0.292734 21.5688C0.363671 21.6163 0.443271 21.6493 0.526989 21.6661C3.77401 23.2061 7.3092 24.0443 10.902 24.1261C14.0622 24.1743 17.1662 23.2875 19.824 21.5771C22.0103 20.1178 23.8015 18.1402 25.0381 15.8207C26.2746 13.5011 26.918 10.9116 26.911 8.28308V7.17508C26.9117 7.08262 26.9326 6.99143 26.9722 6.90785C27.0117 6.82427 27.069 6.7503 27.14 6.69108L29.225 4.94508Z" fill="white"/>
</svg>
