<svg width="35" height="25" viewBox="0 0 35 25" fill="none" xmlns="http://www.w3.org/2000/svg">
<path d="M28.472 0H5.592C4.85756 -1.17433e-08 4.13032 0.144674 3.4518 0.425761C2.77329 0.706848 2.15678 1.11884 1.63751 1.63821C1.11823 2.15758 0.706344 2.77416 0.425379 3.45273C0.144413 4.1313 -0.000131247 4.85856 8.94217e-08 5.593V18.537C8.94217e-08 20.0201 0.589156 21.4424 1.63786 22.4911C2.68656 23.5398 4.10891 24.129 5.592 24.129H28.472C29.9551 24.129 31.3774 23.5398 32.4261 22.4911C33.4748 21.4424 34.064 20.0201 34.064 18.537V5.593C34.064 4.10991 33.4748 2.68756 32.4261 1.63886C31.3774 0.590155 29.9551 0.000999928 28.472 0.000999928V0ZM23.472 12.065L13.863 18.253C13.7556 18.3218 13.6316 18.3604 13.504 18.3648C13.3765 18.3691 13.2502 18.339 13.1383 18.2776C13.0265 18.2162 12.9332 18.1257 12.8684 18.0158C12.8036 17.9059 12.7696 17.7806 12.77 17.653V5.367C12.7696 5.23941 12.8036 5.11406 12.8684 5.00416C12.9332 4.89425 13.0265 4.80385 13.1383 4.74245C13.2502 4.68105 13.3765 4.65092 13.504 4.65524C13.6316 4.65956 13.7556 4.69817 13.863 4.767L23.472 10.913C23.5715 10.9774 23.6532 11.0657 23.7099 11.1698C23.7665 11.2739 23.7961 11.3905 23.7961 11.509C23.7961 11.6275 23.7665 11.7441 23.7099 11.8482C23.6532 11.9523 23.5715 12.0406 23.472 12.105V12.065Z" fill="white"/>
</svg>
